<?xml version="1.0" encoding="UTF-8" standalone="no"?>
<!-- Created with Inkscape (http://www.inkscape.org/) -->

<svg
   xmlns:dc="http://purl.org/dc/elements/1.1/"
   xmlns:cc="http://creativecommons.org/ns#"
   xmlns:rdf="http://www.w3.org/1999/02/22-rdf-syntax-ns#"
   xmlns:svg="http://www.w3.org/2000/svg"
   xmlns="http://www.w3.org/2000/svg"
   xmlns:sodipodi="http://sodipodi.sourceforge.net/DTD/sodipodi-0.dtd"
   xmlns:inkscape="http://www.inkscape.org/namespaces/inkscape"
   version="1.1"
   id="svg2"
   width="650"
   height="533"
   viewBox="0 0 650 533"
   sodipodi:docname="eddy_1.svg"
   inkscape:version="0.92.2 (5c3e80d, 2017-08-06)">
  <metadata
     id="metadata8">
    <rdf:RDF>
      <cc:Work
         rdf:about="">
        <dc:format>image/svg+xml</dc:format>
        <dc:type
           rdf:resource="http://purl.org/dc/dcmitype/StillImage" />
        <dc:title></dc:title>
      </cc:Work>
    </rdf:RDF>
  </metadata>
  <defs
     id="defs6" />
  <sodipodi:namedview
     pagecolor="#ffffff"
     bordercolor="#666666"
     borderopacity="1"
     objecttolerance="10"
     gridtolerance="10"
     guidetolerance="10"
     inkscape:pageopacity="0"
     inkscape:pageshadow="2"
     inkscape:window-width="1920"
     inkscape:window-height="1017"
     id="namedview4"
     showgrid="false"
     inkscape:zoom="0.43692308"
     inkscape:cx="40.052817"
     inkscape:cy="266.5"
     inkscape:window-x="-8"
     inkscape:window-y="-8"
     inkscape:window-maximized="1"
     inkscape:current-layer="svg2" />
  <path
     style="fill:#0000ff;fill-opacity:1;stroke:#000000;stroke-width:1.31247234;stroke-opacity:1"
     d="m 412.64437,524.36668 c -17.14656,-3.9267 -35.44176,-14.0603 -44.96355,-24.90502 -24.51639,-27.92262 -24.65906,-71.71143 -0.32043,-98.34178 17.61846,-19.27739 48.63733,-24.73786 72.21048,-12.71174 10.17343,5.1901 11.82109,14.14401 3.34985,18.20416 -3.46771,1.66202 -4.40538,1.50672 -11.12549,-1.84273 -10.3473,-5.15731 -25.24491,-5.98105 -35.8468,-1.98205 -19.33326,7.29242 -32.43675,32.46937 -28.64222,55.03291 4.96222,29.50705 31.08176,50.1684 63.68275,50.37498 31.96214,0.20254 58.56368,-19.32211 70.35855,-51.64082 14.49629,-39.72074 -0.39833,-85.08682 -35.47594,-108.05286 -17.78612,-11.64496 -30.72233,-13.81469 -68.55564,-11.49863 -34.64671,2.121 -69.37613,1.92799 -89.05231,-0.49492 -42.8559,-5.27724 -87.21205,-19.87674 -133.83298,-44.05018 -23.08178,-11.96814 -27.03743,-16.36494 -21.20408,-23.56881 3.69006,-4.55703 8.61282,-3.67178 23.17279,4.16714 44.84121,24.14201 87.67158,39.14318 129.27852,45.2793 17.56962,2.59114 48.94316,3.02112 97.77918,1.34014 28.02969,-0.96481 34.24645,-0.82497 42.65535,0.95946 36.09418,7.65952 68.08248,41.92704 76.34176,81.78129 4.74196,22.8817 2.02357,47.47867 -7.56565,68.45711 -11.73493,25.67261 -31.51725,43.44599 -57.51088,51.67049 -10.534,3.33301 -33.96841,4.28779 -44.73326,1.82256 z m 45.28028,-4.71892 c 14.79533,-4.97398 23.70665,-10.49272 34.89592,-21.61088 11.13827,-11.06748 18.18068,-22.00063 22.94167,-35.61638 17.31677,-49.52339 -1.52322,-103.34511 -45.43038,-129.78462 -18.35312,-11.05168 -35.73508,-13.22031 -83.28071,-10.39042 -36.79991,2.19032 -56.88675,1.80068 -82.02952,-1.59114 -37.50102,-5.05899 -80.00865,-19.38709 -121.40369,-40.92172 -9.02324,-4.69409 -18.05146,-9.38689 -20.06269,-10.42845 -3.23447,-1.67503 -4.03027,-1.64903 -6.89048,0.22505 -3.87798,2.54094 -4.15939,6.34582 -0.70663,9.55386 3.57428,3.32095 36.1409,20.02329 53.00193,27.18293 31.69143,13.45703 62.68125,22.36793 94.2824,27.11023 22.84237,3.42789 56.55878,3.91865 93.7407,1.36444 38.98218,-2.67787 54.69092,0.21992 73.3427,13.52955 15.11059,10.7827 26.52209,26.05455 33.68113,45.07506 4.15681,11.044 4.31513,12.16973 4.38027,31.14523 0.0745,21.71743 -1.63845,29.38308 -10.26514,45.93653 -5.39638,10.35497 -21.43747,26.45043 -31.66641,31.77377 -34.85683,18.14016 -80.03054,5.73364 -95.82145,-26.31644 -14.41003,-29.24735 -2.36269,-65.31973 25.28045,-75.69525 10.86227,-4.07703 25.65444,-3.29936 36.03445,1.89441 7.177,3.59112 7.63299,3.65697 10.82789,1.56361 14.96913,-9.80817 -22.75847,-23.99709 -45.9108,-17.26653 -11.14545,3.24006 -17.19739,6.65236 -25.16782,14.19046 -12.80774,12.11303 -20.08404,29.67592 -20.08404,48.47709 0,34.78103 22.21162,62.24622 58.24826,72.02539 12.663,3.43633 35.62571,2.75513 48.06199,-1.42578 z M 572.13154,357.82591 c -1.79267,-0.90187 -3.80915,-3.20301 -4.48108,-5.11365 -1.03459,-2.94184 -0.3607,-4.89888 4.4003,-12.7786 10.22639,-16.92526 12.41188,-23.84122 12.4733,-39.47179 0.0484,-12.33791 -0.32186,-14.58364 -3.53687,-21.4464 -4.92285,-10.50831 -16.57494,-21.64931 -29.13452,-27.85659 -15.9285,-7.8723 -32.58809,-7.80464 -50.09553,0.20344 -8.79719,4.02392 -13.48398,3.3402 -15.45138,-2.25405 -2.09679,-5.96222 -0.0535,-10.01128 6.80586,-13.48722 10.87101,-5.50874 20.98924,-7.83448 34.37407,-7.90109 16.06239,-0.0799 27.73426,3.43467 41.10449,12.37722 36.54443,24.44241 44.85661,63.04572 22.27128,103.43205 -7.8804,14.09147 -12.35252,17.50507 -18.72992,14.29668 z m 8.19135,-3.53709 c 4.73528,-3.72477 14.734,-23.81693 17.93607,-36.04205 4.42287,-16.88607 3.27224,-31.82767 -3.5932,-46.65929 -4.82516,-10.42395 -23.2645,-28.51175 -34.56292,-33.904 -18.72189,-8.93513 -37.60586,-10.15924 -56.32068,-3.65088 -13.21432,4.5955 -15.91543,6.62435 -15.41966,11.58198 0.65098,6.50957 3.56264,7.28831 12.41392,3.32019 18.59014,-8.33412 35.58529,-8.32865 52.62921,0.017 10.31022,5.04843 23.89154,18.11751 29.22442,28.12216 9.61508,18.03826 5.61999,43.80794 -10.44221,67.35582 -3.46367,5.07787 -3.40596,7.88988 0.21394,10.42536 3.69769,2.58995 3.92977,2.57336 7.92111,-0.56623 z M 335.86473,256.257 C 310.66826,252.14252 282.02418,243.05451 242.86315,226.75011 139.67851,183.78997 117.43198,176.98082 78.781571,176.52864 60.775803,176.31798 59.799613,176.16893 57.453896,173.2721 c -3.124629,-3.85877 -3.11119,-6.89675 0.04778,-10.80255 2.354392,-2.91096 3.507504,-3.12482 19.054892,-3.53413 37.278012,-0.98139 70.262712,8.1934 150.372932,41.82665 73.62322,30.90978 98.10141,38.31584 127.30981,38.51854 12.33733,0.0855 16.8909,-0.45519 24.93698,-2.96166 21.05438,-6.55873 36.51204,-15.63209 50.55449,-29.67454 C 473.77775,162.59744 476.00797,89.662885 434.49371,50.882742 419.11995,36.521476 402.82133,28.82728 381.7733,25.994658 c -24.46793,-3.292871 -51.13975,5.466174 -67.15409,22.053461 -22.17325,22.966556 -26.32584,61.349981 -9.27732,85.752751 5.95647,8.52593 15.42577,16.00281 25.27293,19.95526 5.72267,2.29698 9.93844,2.90701 20.34332,2.94372 11.51486,0.0406 14.03516,-0.38053 20.54725,-3.43353 8.76039,-4.10705 16.8225,-11.97945 21.043,-20.54785 2.61648,-5.31197 3.03826,-8.18822 3.0662,-20.91003 0.0264,-12.02659 0.43908,-15.157507 2.23434,-16.952759 2.5857,-2.585702 9.22072,-2.900038 12.02841,-0.56985 2.91824,2.421932 5.15873,15.341619 4.34523,25.056489 -4.01915,47.9957 -59.28501,71.90536 -102.75194,44.45353 -23.17257,-14.63482 -36.01249,-41.06538 -34.2922,-70.589408 1.39334,-23.912694 9.33459,-41.545156 26.41529,-58.6516 8.7253,-8.738423 12.83506,-11.712528 23.08368,-16.704945 16.6964,-8.133321 29.6106,-10.6464715 49.79722,-9.690707 17.68795,0.837462 29.73302,3.907968 44.54515,11.355363 27.53021,13.841915 46.60325,36.895166 56.19615,67.923258 3.36593,10.887089 3.57201,13.010259 3.5425,36.496529 -0.0294,23.41343 -0.25152,25.65609 -3.63493,36.7073 -14.72551,48.09786 -52.19287,83.86662 -98.86254,94.38052 -8.77205,1.9762 -33.45392,2.6951 -42.39625,1.23484 z m 44.48428,-4.39093 c 22.44701,-5.38113 44.60176,-18.27396 61.3061,-35.67676 12.81638,-13.35226 17.51326,-20.07835 24.84907,-35.58476 14.10685,-29.81898 16.77695,-62.39341 7.68712,-93.780149 C 463.47036,49.805583 433.6299,21.755143 395.6278,12.973652 378.47619,9.010273 356.08005,9.757499 340.45838,14.814324 304.84735,26.341822 281.61386,56.355711 279.736,93.257799 c -1.20497,23.679101 5.90404,43.628301 20.86058,58.538601 10.33529,10.30334 22.04314,16.52325 36.83207,19.5674 9.90864,2.03959 12.81226,2.14032 22.21039,0.77053 31.09123,-4.53159 52.37184,-28.10908 52.34176,-57.99116 -0.0138,-13.67856 -3.97751,-21.097296 -10.06927,-18.846131 -3.84496,1.420896 -4.16106,2.833651 -3.44537,15.399121 0.57623,10.11739 0.24913,13.06041 -2.15726,19.40894 -8.40631,22.17759 -34.10547,34.47764 -58.80168,28.14351 -11.30334,-2.89909 -17.95282,-6.54895 -26.28123,-14.42561 -13.12858,-12.41647 -18.67285,-26.07957 -18.67285,-46.016816 0,-34.931502 22.35113,-63.240785 57.04018,-72.245401 11.23333,-2.915961 33.21447,-2.672764 45.6392,0.504946 33.01303,8.443309 58.78454,34.576214 68.11517,69.070375 3.99132,14.755386 4.01721,42.750236 0.0532,57.388846 -9.79043,36.1539 -34.00973,64.84909 -67.98162,80.54508 -13.3251,6.15656 -24.94649,8.55979 -41.17983,8.51572 -27.46168,-0.0745 -57.79447,-8.88393 -118.12251,-34.30564 -85.69402,-36.11071 -112.75514,-44.29969 -150.577617,-45.56634 -18.39401,-0.61601 -21.75054,-0.41751 -24.608855,1.45533 -3.705595,2.428 -4.280852,6.19941 -1.386995,9.09326 1.49925,1.49927 5.907845,1.92991 20.015203,1.95519 32.567734,0.0583 65.303054,8.93748 124.463474,33.75957 63.8222,26.77802 78.46954,32.36568 103.22285,39.37726 26.99123,7.64551 53.26708,9.26715 73.10412,4.51169 z"
     id="path823"
     inkscape:connector-curvature="0" />
  <path
     style="fill:#000000"
     d=""
     id="path821"
     inkscape:connector-curvature="0" />
  <path
     style="fill:#000000"
     d=""
     id="path819"
     inkscape:connector-curvature="0" />
  <path
     style="fill:#000000"
     d=""
     id="path817"
     inkscape:connector-curvature="0" />
</svg>
