<?xml version="1.0" encoding="UTF-8" standalone="no"?>
<!-- Generator: Adobe Illustrator 16.0.4, SVG Export Plug-In . SVG Version: 6.00 Build 0)  -->

<svg
   xmlns:dc="http://purl.org/dc/elements/1.1/"
   xmlns:cc="http://creativecommons.org/ns#"
   xmlns:rdf="http://www.w3.org/1999/02/22-rdf-syntax-ns#"
   xmlns:svg="http://www.w3.org/2000/svg"
   xmlns="http://www.w3.org/2000/svg"
   xmlns:sodipodi="http://sodipodi.sourceforge.net/DTD/sodipodi-0.dtd"
   xmlns:inkscape="http://www.inkscape.org/namespaces/inkscape"
   version="1.1"
   id="Layer_1"
   x="0px"
   y="0px"
   width="17.948771in"
   height="16.070829in"
   viewBox="0 0 1723.0819 1542.7996"
   enable-background="new 0 0 1110.082 1000"
   xml:space="preserve"
   sodipodi:docname="Icon-water-blue.svg"
   inkscape:version="0.92.2 (5c3e80d, 2017-08-06)"><metadata
     id="metadata15"><rdf:RDF><cc:Work
         rdf:about=""><dc:format>image/svg+xml</dc:format><dc:type
           rdf:resource="http://purl.org/dc/dcmitype/StillImage" /><dc:title></dc:title></cc:Work></rdf:RDF></metadata><defs
     id="defs13" /><sodipodi:namedview
     pagecolor="#ffffff"
     bordercolor="#666666"
     borderopacity="1"
     objecttolerance="10"
     gridtolerance="10"
     guidetolerance="10"
     inkscape:pageopacity="0"
     inkscape:pageshadow="2"
     inkscape:window-width="1920"
     inkscape:window-height="1017"
     id="namedview11"
     showgrid="false"
     units="in"
     inkscape:zoom="0.236"
     inkscape:cx="27.498643"
     inkscape:cy="500"
     inkscape:window-x="-8"
     inkscape:window-y="-8"
     inkscape:window-maximized="1"
     inkscape:current-layer="Layer_1" /><g
     id="g8"
     transform="matrix(1.5338983,0,0,1.5338983,8,8.9023152)"><path
       d="M 776.482,457.497 C 772.7,426.609 762.625,397.687 747.555,372.035 L 555.039,0 362.516,372.035 h 0.014 c -15.081,25.652 -25.142,54.575 -28.922,85.462 v 0.013 c -0.519,4.238 -0.937,8.52 -1.225,12.838 -0.013,0.333 -0.039,0.681 -0.071,1.023 -0.271,4.468 -0.434,8.946 -0.434,13.479 0,123.26 99.909,223.176 223.162,223.176 123.25,0 223.165,-99.916 223.165,-223.176 0,-4.532 -0.168,-9.01 -0.453,-13.479 -0.025,-0.343 -0.052,-0.689 -0.077,-1.023 -0.279,-4.318 -0.687,-8.6 -1.19,-12.838 v -0.013 z"
       id="path2"
       inkscape:connector-curvature="0"
       style="fill:#73cbea" /><path
       d="m 281.168,740.459 c 6.106,-4.111 7.742,-12.438 3.601,-18.539 -4.131,-6.112 -12.407,-7.738 -18.533,-3.633 -26.688,18.009 -40.232,38.186 -40.232,59.981 0,78.936 169.523,121.519 329.048,121.519 159.513,0 329.013,-42.583 329.013,-121.519 0,-20.112 -11.656,-38.97 -34.645,-56.02 -5.905,-4.384 -14.278,-3.14 -18.675,2.778 -4.403,5.925 -3.153,14.284 2.784,18.662 10.892,8.095 23.861,20.638 23.861,34.578 0,44.861 -124.166,94.819 -302.313,94.819 -178.185,0 -302.346,-49.958 -302.346,-94.819 0.001,-15.409 15.464,-29.072 28.437,-37.807"
       id="path4"
       inkscape:connector-curvature="0"
       style="fill:#73cbea" /><path
       d="m 974.94,669.379 c -6.839,-2.778 -14.597,0.505 -17.419,7.298 -2.784,6.831 0.479,14.615 7.316,17.399 76.448,31.218 118.525,69.177 118.525,106.922 0,83.195 -212.296,172.271 -528.318,172.271 -316.042,0 -528.345,-89.075 -528.345,-172.271 0,-38.943 44.69,-77.887 125.837,-109.635 6.874,-2.701 10.26,-10.445 7.589,-17.322 -2.704,-6.883 -10.493,-10.244 -17.309,-7.55 C 49.362,703.07 0,749.59 0,801.023 0,912.614 243.773,1000 555.046,1000 c 311.25,0 555.036,-87.386 555.036,-198.977 0.025,-50.042 -46.707,-95.576 -135.142,-131.644"
       id="path6"
       inkscape:connector-curvature="0"
       style="fill:#73cbea" /></g></svg>